HIERARCHY
ROOT joint_Root
{
	OFFSET 0.0 0.0 0.0
	CHANNELS 6 Xposition Yposition Zposition Zrotation Xrotation Yrotation 
	JOINT Hips
	{
		OFFSET -0.726466 93.3139 -2.00062
		CHANNELS 6 Xposition Yposition Zposition Zrotation Xrotation Yrotation 
		JOINT Spine
		{
			OFFSET 15.7357 0.0 0.0
			CHANNELS 6 Xposition Yposition Zposition Zrotation Xrotation Yrotation 
			JOINT Chest
			{
				OFFSET 8.98455 -0.406207 0.0
				CHANNELS 6 Xposition Yposition Zposition Zrotation Xrotation Yrotation 
				JOINT Neck
				{
					OFFSET 16.3773 0.0 0.0
					CHANNELS 6 Xposition Yposition Zposition Zrotation Xrotation Yrotation 
					JOINT Head
					{
						OFFSET 6.45672 0.0 0.0
						CHANNELS 6 Xposition Yposition Zposition Zrotation Xrotation Yrotation 
						End Site
						{
							OFFSET 0.0 0.0 0.0
						}
					}
				}
				JOINT Shoulder_L
				{
					OFFSET 12.9942 -0.242716 4.98039
					CHANNELS 6 Xposition Yposition Zposition Zrotation Xrotation Yrotation 
					JOINT UpperArm_L
					{
						OFFSET 5.34809 0.0 0.0
						CHANNELS 6 Xposition Yposition Zposition Zrotation Xrotation Yrotation 
						JOINT LowerArm_L
						{
							OFFSET 24.3286 1.87007e-05 0.0
							CHANNELS 6 Xposition Yposition Zposition Zrotation Xrotation Yrotation 
							JOINT Hand_L
							{
								OFFSET 22.2916 0.0 0.0
								CHANNELS 6 Xposition Yposition Zposition Zrotation Xrotation Yrotation 
								End Site
								{
									OFFSET 0.0 0.0 0.0
								}
							}
						}
					}
				}
				JOINT Shoulder_R
				{
					OFFSET 12.9945 -0.242716 -4.98039
					CHANNELS 6 Xposition Yposition Zposition Zrotation Xrotation Yrotation 
					JOINT UpperArm_R
					{
						OFFSET -5.34813 0.0 0.0
						CHANNELS 6 Xposition Yposition Zposition Zrotation Xrotation Yrotation 
						JOINT LowerArm_R
						{
							OFFSET -24.3289 0.000322201 0.0
							CHANNELS 6 Xposition Yposition Zposition Zrotation Xrotation Yrotation 
							JOINT Hand_R
							{
								OFFSET -22.2915 -0.000108084 0.0
								CHANNELS 6 Xposition Yposition Zposition Zrotation Xrotation Yrotation 
								End Site
								{
									OFFSET 0.0 0.0 0.0
								}
							}
						}
					}
				}
			}
		}
		JOINT UpperLeg_L
		{
			OFFSET -2.19248 -6.46944 0.0
			CHANNELS 6 Xposition Yposition Zposition Zrotation Xrotation Yrotation 
			JOINT LowerLeg_L
			{
				OFFSET 39.0811 0.0 -1.23785e-05
				CHANNELS 6 Xposition Yposition Zposition Zrotation Xrotation Yrotation 
				JOINT Foot_L
				{
					OFFSET 40.9854 0.0 -1.26872e-05
					CHANNELS 6 Xposition Yposition Zposition Zrotation Xrotation Yrotation 
					JOINT Toes_L
					{
						OFFSET 11.7543 0.0 0.0
						CHANNELS 6 Xposition Yposition Zposition Zrotation Xrotation Yrotation 
						End Site
						{
							OFFSET 0.0 0.0 0.0
						}
					}
				}
			}
		}
		JOINT UpperLeg_R
		{
			OFFSET -2.19251 6.46944 0.0
			CHANNELS 6 Xposition Yposition Zposition Zrotation Xrotation Yrotation 
			JOINT LowerLeg_R
			{
				OFFSET -39.0811 -0.00228153 -0.0401928
				CHANNELS 6 Xposition Yposition Zposition Zrotation Xrotation Yrotation 
				JOINT Foot_R
				{
					OFFSET -40.9854 0.0 0.0
					CHANNELS 6 Xposition Yposition Zposition Zrotation Xrotation Yrotation 
					JOINT Toes_R
					{
						OFFSET -11.7543 0.0 0.0
						CHANNELS 6 Xposition Yposition Zposition Zrotation Xrotation Yrotation 
						End Site
						{
							OFFSET 0.0 0.0 0.0
						}
					}
				}
			}
		}
	}
}
MOTION
Frames:	6
Frame Time:	0.0333333
0.000000 0.000000 0.000000 0.000000 0.000000 -0.000000 -3.230320 93.705100 4.717010 92.308100 -7.789690 -3.806550 15.735700 0.000005 -0.000001 134.885000 82.322500 -135.625000 8.984550 -0.406207 -0.000000 3.234700 10.853400 -1.789240 16.377300 -0.000001 -0.000001 -1.341290 -1.884170 2.864300 6.456720 -0.000001 -0.000000 2.335440 -7.229410 -2.802470 12.994200 -0.242716 4.980390 -85.166000 -11.054200 -66.198800 5.348090 -0.000007 -0.000001 -75.097600 36.097000 34.308800 24.328600 0.000019 0.000005 1.804110 0.034887 -88.914500 22.291600 -0.000001 0.000005 -5.143270 5.627820 -13.185100 12.994500 -0.242716 -4.980390 89.613400 1.239310 -72.674100 -5.348130 -0.000001 -0.000004 -54.611500 30.792600 -36.292200 -24.328900 0.000322 -0.000009 0.408023 -0.165293 -112.063000 -22.291500 -0.000108 -0.000004 5.704720 5.600510 -11.372600 -2.192480 -6.469440 -0.000000 173.403000 -4.889090 -40.161200 39.081100 -0.000007 -0.000012 0.035535 -0.019825 60.836100 40.985400 -0.000006 -0.000013 9.135920 -13.162800 -58.583700 11.754300 -0.000000 0.000003 -0.008388 -0.091178 -20.290100 -2.192510 6.469440 -0.000001 169.623000 9.891780 -165.529000 -39.081100 -0.002282 -0.040193 0.063633 -0.136697 23.809700 -40.985400 0.000008 0.000006 -6.336230 11.695800 -26.053700 -11.754300 -0.000006 -0.000006 -0.017768 -0.154596 -22.885400
0.000000 0.000000 0.000000 0.000000 0.000000 -0.000000 -3.683450 94.731600 16.132200 90.274200 -7.503350 -5.082240 15.735700 0.000005 -0.000001 141.149000 82.501800 -141.446000 8.984550 -0.406207 -0.000000 1.708910 11.687900 -0.769809 16.377300 -0.000001 -0.000001 -1.307910 -2.475900 2.319320 6.456720 -0.000001 -0.000000 3.170910 -8.570140 -3.022150 12.994200 -0.242716 4.980390 -84.813600 -11.999400 -66.414300 5.348090 -0.000007 -0.000001 -75.431600 34.194800 35.703500 24.328600 0.000019 0.000005 0.498810 -0.014600 -91.673700 22.291600 -0.000001 0.000005 -4.266780 5.614990 -12.282600 12.994500 -0.242716 -4.980390 89.882000 0.378108 -72.670600 -5.348130 -0.000001 -0.000004 -55.235600 33.029200 -35.697400 -24.328900 0.000322 -0.000009 -0.234067 0.094840 -112.054000 -22.291500 -0.000108 -0.000004 6.491790 5.606720 -11.749900 -2.192480 -6.469440 -0.000000 176.685000 -5.355740 -33.328100 39.081100 -0.000007 -0.000012 0.012733 -0.019229 33.510100 40.985400 -0.000006 -0.000013 3.274930 -3.014480 -62.096700 11.754300 -0.000000 0.000003 -0.008085 -0.088739 -20.190400 -2.192510 6.469440 -0.000001 171.931000 8.556110 -165.409000 -39.081100 -0.002282 -0.040193 0.108078 -0.172638 31.254700 -40.985400 0.000008 0.000006 -3.083150 6.617630 -29.660000 -11.754300 -0.000006 -0.000006 -0.019274 -0.163236 -23.241000
0.000000 0.000000 0.000000 0.000000 0.000000 -0.000000 -4.183730 94.228500 27.841400 86.850800 -7.929950 -4.991800 15.735700 0.000005 -0.000001 143.645000 82.466100 -142.957000 8.984550 -0.406207 -0.000000 1.124560 12.089700 1.260390 16.377300 -0.000001 -0.000001 -1.071240 -2.122980 1.781020 6.456720 -0.000001 -0.000000 2.840570 -8.885400 -2.674710 12.994200 -0.242716 4.980390 -84.719300 -11.878100 -65.817400 5.348090 -0.000007 -0.000001 -75.144600 32.287200 34.438700 24.328600 0.000019 0.000005 1.573540 -0.074875 -92.725100 22.291600 -0.000001 0.000005 -4.581970 5.610780 -12.004000 12.994500 -0.242716 -4.980390 90.051100 -0.168326 -73.100600 -5.348130 -0.000001 -0.000004 -56.993200 35.469200 -32.604200 -24.328900 0.000322 -0.000009 0.258846 -0.091371 -109.524000 -22.291500 -0.000108 -0.000004 7.084770 5.613100 -12.158700 -2.192480 -6.469440 -0.000000 -179.577000 -8.278680 -25.286300 39.081100 -0.000007 -0.000012 -0.013633 0.068591 11.240700 40.985400 -0.000006 -0.000013 -3.194350 5.581910 -66.064200 11.754300 -0.000000 0.000003 -0.009854 -0.102554 -20.755000 -2.192510 6.469440 -0.000001 177.063000 4.378080 -167.071000 -39.081100 -0.002282 -0.040193 0.164147 -0.163138 44.601200 -40.985400 0.000008 0.000006 -2.575210 1.611990 -28.350400 -11.754300 -0.000006 -0.000006 -0.019348 -0.163653 -23.258100
0.000000 0.000000 0.000000 0.000000 0.000000 -0.000000 -4.125700 92.685000 39.137300 86.938600 -7.314050 -4.630440 15.735700 0.000005 -0.000001 138.758000 82.769100 -138.281000 8.984550 -0.406207 -0.000000 1.755260 10.843000 0.789141 16.377300 -0.000001 -0.000001 -1.450580 -1.938940 1.881460 6.456720 -0.000001 -0.000000 1.735040 -8.046860 -2.167040 12.994200 -0.242716 4.980390 -85.128000 -10.897200 -65.730900 5.348090 -0.000007 -0.000001 -74.804600 29.375500 30.095000 24.328600 0.000019 0.000005 2.640420 -0.090474 -91.963200 22.291600 -0.000001 0.000005 -5.341400 5.601560 -11.435800 12.994500 -0.242716 -4.980390 89.931100 0.227315 -73.134400 -5.348130 -0.000001 -0.000004 -59.455000 37.016400 -27.927400 -24.328900 0.000322 -0.000009 1.550340 -0.402718 -104.575000 -22.291500 -0.000108 -0.000004 7.363830 5.615520 -12.316400 -2.192480 -6.469440 -0.000000 178.629000 -11.783000 -23.550400 39.081100 -0.000007 -0.000012 -0.016512 0.131663 7.147670 40.985400 -0.000006 -0.000013 -10.022000 4.423880 -67.500100 11.754300 -0.000000 0.000003 -0.010150 -0.104769 -20.845600 -2.192510 6.469440 -0.000001 178.372000 3.040220 -172.412000 -39.081100 -0.002282 -0.040193 0.208491 -0.099013 64.254900 -40.985400 0.000008 0.000006 -0.344315 1.493100 -29.059400 -11.754300 -0.000006 -0.000006 -0.020381 -0.169389 -23.494400
0.000000 0.000000 0.000000 0.000000 0.000000 -0.000000 -3.707410 90.032800 49.653400 90.592600 -5.084310 -3.823070 15.735700 0.000005 -0.000001 125.288000 83.231000 -126.162000 8.984550 -0.406207 -0.000000 3.372130 7.845350 -1.978680 16.377300 -0.000001 -0.000001 -2.359300 -2.245630 2.518200 6.456720 -0.000001 -0.000000 0.578807 -6.497640 -1.835760 12.994200 -0.242716 4.980390 -86.487000 -8.322220 -67.020100 5.348090 -0.000007 -0.000001 -73.484000 25.732300 24.331800 24.328600 0.000019 0.000005 5.445730 -0.244294 -92.552300 22.291600 -0.000001 0.000005 -4.551730 5.612170 -12.090500 12.994500 -0.242716 -4.980390 89.412900 1.890900 -72.755500 -5.348130 -0.000001 -0.000004 -61.051300 37.442700 -22.104700 -24.328900 0.000322 -0.000009 2.589160 -0.388313 -98.533900 -22.291500 -0.000108 -0.000004 7.946720 5.620870 -12.679800 -2.192480 -6.469440 -0.000000 172.135000 -10.751300 -31.270700 39.081100 -0.000007 -0.000012 0.280118 -0.555647 26.754500 40.985400 -0.000006 -0.000013 5.893290 -0.775527 -67.811000 11.754300 -0.000000 0.000003 -0.014578 -0.135155 -22.090500 -2.192510 6.469440 -0.000001 174.943000 5.158200 178.703000 -39.081100 -0.002282 -0.040193 0.321286 -0.014168 87.463800 -40.985400 0.000008 0.000006 0.384751 -1.934750 -29.499200 -11.754300 -0.000006 -0.000006 -0.021382 -0.174827 -23.718600
0.000000 0.000000 0.000000 0.000000 0.000000 -0.000000 -3.168880 86.634000 60.012200 93.859600 -2.424530 -3.014810 15.735700 0.000005 -0.000001 108.912000 83.406000 -110.920000 8.984550 -0.406207 -0.000000 4.799990 4.318310 -4.194910 16.377300 -0.000001 -0.000001 -3.032040 -3.080390 3.369260 6.456720 -0.000001 -0.000000 -0.575151 -4.194620 -2.041920 12.994200 -0.242716 4.980390 -88.567900 -3.756740 -69.127500 5.348090 -0.000007 -0.000001 -70.266400 22.735800 17.156000 24.328600 0.000019 0.000005 11.618300 -1.394000 -96.725500 22.291600 -0.000001 0.000005 -3.082430 5.629760 -13.321400 12.994500 -0.242716 -4.980390 88.327000 5.044580 -71.628700 -5.348130 -0.000001 -0.000004 -61.047700 36.885100 -15.547700 -24.328900 0.000322 -0.000009 3.352580 -0.057437 -91.005200 -22.291500 -0.000108 -0.000004 7.296050 5.626280 -13.067600 -2.192480 -6.469440 -0.000000 168.915000 -9.119250 -34.580000 39.081100 -0.000007 -0.000012 0.116783 -0.122716 43.580300 40.985400 -0.000006 -0.000013 7.470720 -0.604521 -63.630400 11.754300 -0.000000 0.000003 -0.006384 -0.074292 -19.600700 -2.192510 6.469440 -0.000001 172.119000 7.647940 168.317000 -39.081100 -0.002282 -0.040193 0.200758 0.067023 108.774000 -40.985400 0.000008 0.000006 4.524500 -4.883580 -29.371000 -11.754300 -0.000006 -0.000006 -0.022421 -0.180345 -23.946200
